<?xml version="1.0" encoding="UTF-8"?> <svg xmlns="http://www.w3.org/2000/svg" id="Layer_1" viewBox="0 0 388 80"><polygon points="164.01 49.55 174.01 49.55 174.01 9.55 204.01 9.55 204.01 -.45 164.01 -.45 164.01 49.55"></polygon><polygon points="80.01 36.46 50.01 21.46 50.01 -.45 40.01 -.45 40.01 39.55 10.01 39.55 10.01 -.45 .01 -.45 .01 49.55 50.01 49.55 50.01 32.64 90.01 52.64 90.01 -.45 80.01 -.45 80.01 36.46"></polygon><path d="M102.01,49.55h50V-.45h-50v50ZM112.01,9.55h30v30h-30V9.55Z"></path><path d="M276.01,49.55h50V-.45h-50v50ZM286.01,9.55h30v30h-30V9.55Z"></path><path d="M338.01-.45v50h50V-.45h-50ZM378.01,39.55h-30V9.55h30v30Z"></path><path d="M214.01,39.55l40,10v20h-40v10h50V-.45h-50v40ZM224.01,9.55h30v29.69l-30-7.5V9.55Z"></path></svg> 