<?xml version="1.0" encoding="UTF-8"?>
<svg id="katman_1" data-name="katman 1" xmlns="http://www.w3.org/2000/svg" viewBox="0 0 392 131">
  <defs>
    <style>
      .cls-1 {
        fill: #795ded;
      }

      .cls-2 {
        fill: #261a68;
      }
    </style>
  </defs>
  <g>
    <polygon class="cls-2" points="165 99 175 99 175 59 205 59 205 49 165 49 165 99"/>
    <polygon class="cls-2" points="81 85.91 51 70.91 51 49 41 49 41 89 11 89 11 49 1 49 1 99 51 99 51 82.09 91 102.09 91 49 81 49 81 85.91"/>
    <path class="cls-2" d="M103,99h50v-50h-50v50ZM113,59h30v30h-30v-30Z"/>
    <path class="cls-2" d="M277,99h50v-50h-50v50ZM287,59h30v30h-30v-30Z"/>
    <path class="cls-2" d="M339,49v50h50v-50h-50ZM379,89h-30v-30h30v30Z"/>
    <path class="cls-2" d="M215,89l40,10v20h-40v10h50V49h-50v40ZM225,59h30v29.69l-30-7.5v-22.19Z"/>
  </g>
  <g>
    <g>
      <path class="cls-1" d="M227.9,30.94c-1.9-2.04-2.85-4.7-2.85-7.98s.95-5.94,2.85-7.98c1.9-2.04,4.29-3.06,7.15-3.06,1.8,0,3.46.53,4.96,1.58.64.45,1.21.96,1.71,1.54h.21v-2.71h4.37v21.25h-4.37v-2.92h-.21c-.42.58-.99,1.14-1.71,1.67-1.5,1.11-3.15,1.67-4.96,1.67-2.86,0-5.24-1.02-7.15-3.06ZM231.3,17.71c-1.11,1.22-1.67,2.97-1.67,5.25s.56,4.03,1.67,5.25c1.11,1.22,2.64,1.83,4.58,1.83,1.83,0,3.3-.62,4.4-1.85,1.1-1.24,1.65-2.98,1.65-5.23s-.55-3.99-1.65-5.23c-1.1-1.24-2.56-1.85-4.4-1.85-1.94,0-3.47.61-4.58,1.83Z"/>
      <path class="cls-1" d="M251.29,33.58V4.42h4.38v16.25h3.12l6.46-8.33h5l-7.71,9.79,8.33,11.46h-5.42l-6.46-8.96h-3.33v8.96h-4.38Z"/>
      <path class="cls-1" d="M273.73,30.94c-1.9-2.04-2.85-4.7-2.85-7.98s.95-5.94,2.85-7.98c1.9-2.04,4.29-3.06,7.15-3.06,1.8,0,3.46.53,4.96,1.58.64.45,1.21.96,1.71,1.54h.21v-2.71h4.37v21.25h-4.37v-2.92h-.21c-.42.58-.99,1.14-1.71,1.67-1.5,1.11-3.15,1.67-4.96,1.67-2.86,0-5.24-1.02-7.15-3.06ZM277.13,17.71c-1.11,1.22-1.67,2.97-1.67,5.25s.56,4.03,1.67,5.25c1.11,1.22,2.64,1.83,4.58,1.83,1.83,0,3.3-.62,4.4-1.85,1.1-1.24,1.65-2.98,1.65-5.23s-.55-3.99-1.65-5.23c-1.1-1.24-2.56-1.85-4.4-1.85-1.94,0-3.47.61-4.58,1.83Z"/>
      <path class="cls-1" d="M298.73,30.94c-1.9-2.04-2.85-4.7-2.85-7.98s.95-5.94,2.85-7.98c1.9-2.04,4.29-3.06,7.15-3.06,1.8,0,3.46.53,4.96,1.58.64.45,1.21.96,1.71,1.54h.21V4.42h4.37v29.17h-4.37v-2.71h-.21c-.47.58-1.04,1.11-1.71,1.58-1.47,1.03-3.13,1.54-4.96,1.54-2.86,0-5.24-1.02-7.15-3.06ZM302.13,17.71c-1.11,1.22-1.67,2.97-1.67,5.25s.56,4.03,1.67,5.25c1.11,1.22,2.64,1.83,4.58,1.83,1.83,0,3.3-.62,4.4-1.85,1.1-1.24,1.65-2.98,1.65-5.23s-.55-3.99-1.65-5.23c-1.1-1.24-2.56-1.85-4.4-1.85-1.94,0-3.47.61-4.58,1.83Z"/>
      <path class="cls-1" d="M324.02,30.81c-2.1-2.13-3.14-4.74-3.14-7.85s1.05-5.73,3.14-7.85c2.1-2.13,4.66-3.19,7.69-3.19s5.59,1.06,7.69,3.19c2.1,2.12,3.15,4.74,3.15,7.85v1.46h-17.29c.33,1.75,1.1,3.12,2.29,4.12,1.19,1,2.58,1.5,4.17,1.5,1.94,0,3.5-.49,4.67-1.46.53-.39.99-.88,1.38-1.46h4.58c-.58,1.36-1.32,2.51-2.21,3.46-2.28,2.28-5.08,3.42-8.42,3.42-3.03,0-5.59-1.06-7.69-3.19ZM325.46,20.87h12.5c-.25-1.39-.91-2.57-1.98-3.54-1.07-.97-2.49-1.46-4.27-1.46-1.5,0-2.83.45-4,1.35-1.17.9-1.92,2.12-2.25,3.65Z"/>
      <path class="cls-1" d="M346.29,33.58V12.33h4.38v2.92h.21c.36-.61.83-1.17,1.42-1.67,1.33-1.11,2.94-1.67,4.83-1.67,2.25,0,4.07.67,5.46,2,.58.56,1.06,1.21,1.42,1.96h.21c.39-.72.93-1.37,1.62-1.96,1.5-1.33,3.39-2,5.67-2,2.47,0,4.41.77,5.81,2.31,1.4,1.54,2.1,3.76,2.1,6.64v12.71h-4.38v-12.5c0-3.47-1.53-5.21-4.58-5.21-1.47,0-2.74.58-3.81,1.73s-1.6,2.59-1.6,4.31v11.67h-4.38v-12.5c0-3.47-1.53-5.21-4.58-5.21-1.47,0-2.74.58-3.81,1.73s-1.6,2.59-1.6,4.31v11.67h-4.38Z"/>
      <path class="cls-1" d="M384.54,8.46c-.5-.5-.75-1.11-.75-1.83s.25-1.34.75-1.85c.5-.51,1.11-.77,1.83-.77s1.34.26,1.85.77c.51.51.77,1.13.77,1.85s-.26,1.33-.77,1.83c-.51.5-1.13.75-1.85.75s-1.33-.25-1.83-.75ZM384.21,33.58V12.33h4.38v21.25h-4.38Z"/>
    </g>
    <path class="cls-1" d="M207.08,33.58l11.04-29.17h4.79l-11.04,29.17h-4.79Z"/>
  </g>
</svg>